<svg width="48" height="51" viewBox="0 0 48 51" fill="none" xmlns="http://www.w3.org/2000/svg">
<g clip-path="url(#clip0_1242_1415)">
<path d="M24.2266 44.806L24.018 44.8078H23.523L23.0351 44.118C20.7426 40.8956 18.0759 37.9853 14.2338 34.5173C13.9259 34.2349 12.9618 33.3787 12.0952 32.6143C8.51544 29.4476 7.41975 28.4296 6.13696 27.0724C3.42818 24.2044 1.84104 21.7239 0.895735 18.8856C0.00235366 16.1866 -0.244714 12.9939 0.253897 10.5062C1.36839 4.96886 5.94182 0.735577 11.5134 0.0880379C11.7909 0.0538622 12.0952 0.0196865 12.1883 0.0124917C12.6198 -0.0252815 14.181 0.0277808 14.7288 0.102428C17.0088 0.406411 19.099 1.2698 20.9055 2.64852C19.4312 1.78783 17.8064 1.23292 16.0716 1.00179C15.5237 0.927141 13.9626 0.874078 13.5311 0.911852C13.438 0.919046 13.1336 0.953222 12.8561 0.987398C7.28457 1.63494 2.71114 5.86822 1.59665 11.4056C1.09804 13.8932 1.34511 17.0859 2.23849 19.7849C3.18379 22.6233 4.77093 25.1037 7.47972 27.9718C8.7625 29.3289 9.85819 30.347 13.438 33.5136C14.3045 34.2781 15.2686 35.1343 15.5765 35.4167C19.3345 38.8082 21.9681 41.6672 24.2266 44.806Z" fill="#BC1D29"/>
<path d="M42.8313 2.64758C41.3292 1.7743 39.6535 1.2131 37.8246 0.975665C37.1004 0.88483 35.524 0.88483 34.7855 0.975665C32.0356 1.32642 29.6114 2.43443 27.5821 4.27002C26.865 4.91846 26.0585 5.8421 25.5742 6.56968C25.4623 6.73876 25.3603 6.87816 25.3495 6.87816C25.3379 6.87816 25.2367 6.73876 25.1239 6.56968C24.91 6.24861 24.6334 5.88707 24.3281 5.52912C24.8178 4.82582 25.5679 3.97773 26.2393 3.37066C28.2687 1.53507 30.6928 0.427056 33.4428 0.0763052C34.1813 -0.0145301 35.7577 -0.0145301 36.4819 0.0763052C38.8765 0.387484 41.0088 1.25267 42.8313 2.64758Z" fill="#BC1D29"/>
<path d="M47.9521 14.7278C47.5922 18.3091 46.373 21.2419 43.9605 24.351C42.4745 26.2621 40.6394 28.113 37.0534 31.3246C34.7304 33.3977 33.9167 34.1333 33.1997 34.8043C29.5492 38.2002 27.0919 40.982 25.0017 44.0802L24.5147 44.8042L24.2274 44.806C23.9436 44.4112 23.6527 44.02 23.3555 43.6324L23.6589 43.1809C25.7492 40.0826 28.2064 37.3009 31.8569 33.9049C32.5739 33.234 33.3877 32.4983 35.7106 30.4253C39.2967 27.2137 41.1318 25.3628 42.6178 23.4516C45.0303 20.3425 46.2495 17.4097 46.6093 13.8285C46.681 13.0901 46.6729 11.322 46.5905 10.6816C46.1967 7.64718 44.9363 5.03814 42.846 2.93903C42.6124 2.7043 42.3734 2.48036 42.1272 2.26721C42.3662 2.38683 42.6017 2.51364 42.8326 2.64764C43.3062 3.00828 43.7582 3.4058 44.1888 3.83839C46.279 5.9375 47.5394 8.54654 47.9333 11.581C48.0157 12.2213 48.0237 13.9895 47.9521 14.7278Z" fill="#EA5762"/>
<path d="M46.6076 13.8285C46.2477 17.4098 45.0285 20.3426 42.616 23.4517C41.1301 25.3628 39.295 27.2137 35.7089 30.4253C33.3859 32.4983 32.5722 33.234 31.8552 33.9049C28.2047 37.3009 25.7474 40.0826 23.6572 43.1809L23.3537 43.6324C21.2859 40.9388 18.8609 38.381 15.5756 35.4167C15.2677 35.1343 14.3036 34.2782 13.437 33.5137C9.85723 30.3471 8.76154 29.329 7.47876 27.9718C4.76997 25.1038 3.18283 22.6234 2.23753 19.785C1.34415 17.086 1.09708 13.8933 1.59569 11.4056C2.71018 5.86828 7.28361 1.63499 12.8552 0.987452C13.1327 0.953276 13.437 0.919101 13.5301 0.911906C13.9616 0.874133 15.5228 0.927195 16.0706 1.00184C17.8055 1.23298 19.4302 1.78788 20.9045 2.64857C20.9045 2.64857 20.9051 2.64887 20.9063 2.64947C21.6878 3.10454 22.4272 3.64686 23.1165 4.27012C23.5167 4.63166 23.9437 5.07864 24.3277 5.52922C24.6329 5.88716 24.9095 6.24871 25.1235 6.56978C25.2363 6.73886 25.3374 6.87826 25.3491 6.87826C25.3598 6.87826 25.4619 6.73886 25.5738 6.56978C26.0581 5.8422 26.8646 4.91855 27.5816 4.27012C29.611 2.43452 32.0351 1.32651 34.7851 0.97576C35.5236 0.884925 37.1 0.884925 37.8242 0.97576C39.3719 1.17632 40.8096 1.60981 42.1255 2.26724C42.3717 2.48039 42.6107 2.70433 42.8443 2.93906C44.9345 5.03817 46.1949 7.64721 46.5888 10.6817C46.6712 11.322 46.6792 13.0901 46.6076 13.8285Z" fill="#ED1C24"/>
<path d="M28.5985 15.7045L29.7882 15.2648L30.2286 14.0695C30.2653 13.9679 30.345 13.8887 30.4462 13.851C30.6359 13.7808 30.8472 13.8788 30.917 14.0695L31.3548 15.2648L32.5445 15.7072C32.6456 15.7441 32.7244 15.8242 32.762 15.9258C32.8318 16.1164 32.7342 16.3287 32.5445 16.3988L31.3548 16.8386L30.9143 18.0339C30.8776 18.1355 30.798 18.2147 30.6968 18.2524C30.507 18.3226 30.2958 18.2245 30.226 18.0339L29.7882 16.8386L28.6003 16.397C28.4553 16.3449 28.3595 16.2064 28.3604 16.0508C28.3586 15.8961 28.4544 15.7567 28.5994 15.7036L28.5985 15.7045ZM29.8339 13.645C29.8339 13.5425 29.7515 13.4597 29.6495 13.4597H29.2807V13.0892C29.2807 12.9867 29.1983 12.9039 29.0963 12.9039C28.9942 12.9039 28.9118 12.9867 28.9118 13.0892V13.4597H28.543C28.441 13.4597 28.3586 13.5425 28.3586 13.645C28.3586 13.7475 28.441 13.8303 28.543 13.8303H28.9118V14.2008C28.9118 14.3033 28.9942 14.3861 29.0963 14.3861C29.1983 14.3861 29.2807 14.3033 29.2807 14.2008V13.8303H29.6495C29.7515 13.8303 29.8339 13.7475 29.8339 13.645ZM27.4375 14.7557C27.4375 14.8582 27.5199 14.941 27.6219 14.941H27.8063V15.1262C27.8063 15.2288 27.8887 15.3115 27.9907 15.3115C28.0928 15.3115 28.1751 15.2288 28.1751 15.1262V14.941H28.3595C28.4616 14.941 28.5439 14.8582 28.5439 14.7557C28.5439 14.6532 28.4616 14.5704 28.3595 14.5704H28.1751V14.3852C28.1751 14.2826 28.0928 14.1999 27.9907 14.1999C27.8887 14.1999 27.8063 14.2826 27.8063 14.3852V14.5704H27.6219C27.5199 14.5704 27.4375 14.6532 27.4375 14.7557Z" fill="black"/>
<path d="M18.245 15.7045L19.4347 15.2648L19.8751 14.0695C19.9118 13.9679 19.9915 13.8887 20.0927 13.851C20.2824 13.7808 20.4937 13.8788 20.5635 14.0695L21.0013 15.2648L22.1909 15.7072C22.2921 15.7441 22.3709 15.8242 22.4085 15.9258C22.4783 16.1164 22.3807 16.3287 22.1909 16.3988L21.0013 16.8386L20.5608 18.0339C20.5241 18.1355 20.4445 18.2147 20.3433 18.2524C20.1535 18.3226 19.9423 18.2245 19.8724 18.0339L19.4347 16.8386L18.2468 16.397C18.1018 16.3449 18.006 16.2064 18.0069 16.0508C18.0051 15.8961 18.1009 15.7567 18.2459 15.7036L18.245 15.7045ZM19.4804 13.645C19.4804 13.5425 19.398 13.4597 19.296 13.4597H18.9271V13.0892C18.9271 12.9867 18.8448 12.9039 18.7427 12.9039C18.6407 12.9039 18.5583 12.9867 18.5583 13.0892V13.4597H18.1895C18.0875 13.4597 18.0051 13.5425 18.0051 13.645C18.0051 13.7475 18.0875 13.8303 18.1895 13.8303H18.5583V14.2008C18.5583 14.3033 18.6407 14.3861 18.7427 14.3861C18.8448 14.3861 18.9271 14.3033 18.9271 14.2008V13.8303H19.296C19.398 13.8303 19.4804 13.7475 19.4804 13.645ZM17.084 14.7557C17.084 14.8582 17.1663 14.941 17.2684 14.941H17.4528V15.1262C17.4528 15.2288 17.5352 15.3115 17.6372 15.3115C17.7393 15.3115 17.8216 15.2288 17.8216 15.1262V14.941H18.006C18.1081 14.941 18.1904 14.8582 18.1904 14.7557C18.1904 14.6532 18.1081 14.5704 18.006 14.5704H17.8216V14.3852C17.8216 14.2826 17.7393 14.1999 17.6372 14.1999C17.5352 14.1999 17.4528 14.2826 17.4528 14.3852V14.5704H17.2684C17.1663 14.5704 17.084 14.6532 17.084 14.7557Z" fill="black"/>
<path d="M21.3863 22.5936C22.6064 22.3319 23.839 22.1377 25.0815 22.027C26.2372 21.9245 27.3991 21.9065 28.5056 22.304C28.9943 22.4803 29.2047 21.6979 28.7195 21.5234C27.5504 21.1025 26.3034 21.1088 25.0815 21.2167C23.7674 21.3336 22.4622 21.536 21.1723 21.8121C20.6656 21.9209 20.8796 22.7007 21.3863 22.5927V22.5936Z" fill="black"/>
<path d="M23.6275 26.9483C22.9982 26.3169 22.4002 25.6442 21.949 24.8752C21.4979 24.1063 21.1953 23.2312 21.1953 22.3381" fill="#16142B"/>
<path d="M23.9117 26.6623C22.7399 25.4787 21.6317 24.0865 21.5968 22.3382C21.586 21.8183 20.7804 21.8166 20.7911 22.3382C20.8305 24.3078 22.0139 25.8933 23.3424 27.2343C23.7085 27.6039 24.2778 27.0319 23.9117 26.6623Z" fill="black"/>
<path d="M28.2846 21.8508C28.1494 22.3823 27.6991 22.85 27.3545 23.261C27.0099 23.672 26.6545 24.0506 26.2749 24.4158C25.4836 25.1775 24.6099 25.8368 23.6709 26.4034C23.2269 26.6714 23.6315 27.3711 24.0773 27.1022C25.1157 26.4762 26.086 25.7342 26.9526 24.8825C27.3822 24.4607 27.7869 24.0129 28.1628 23.5407C28.5209 23.0919 28.9166 22.6332 29.0616 22.0648C29.1905 21.5603 28.4135 21.3445 28.2846 21.8499V21.8508Z" fill="black"/>
<path d="M21.9853 24.8528C23.1956 24.8213 24.4488 24.7943 25.5177 25.4491C25.9617 25.7207 26.3672 25.021 25.9241 24.7503C24.7308 24.02 23.3388 24.0083 21.9844 24.0434C21.467 24.0569 21.4652 24.8663 21.9844 24.8528H21.9853Z" fill="black"/>
<path d="M21.939 24.5848L24.7543 24.6748L25.7058 25.3799L23.4464 27.0599L21.6758 24.6037L21.939 24.5848Z" fill="black"/>
<path d="M36.1418 50.9999H36.0585C35.875 50.0232 35.3988 49.1508 34.7238 48.4781C33.8573 47.6129 32.6631 47.0787 31.3436 47.0787C30.5756 47.0787 29.8487 47.2604 29.2051 47.5832V46.6839C29.8487 46.361 30.5756 46.1793 31.3436 46.1793C32.6631 46.1793 33.8573 46.7135 34.7238 47.5787C35.6002 48.452 36.1418 49.6625 36.1418 50.9999Z" fill="#16142B"/>
<path d="M29.2045 44.217V45.1163C28.3075 45.039 27.4204 44.9239 26.5449 44.7728V43.8734C27.4204 44.0245 28.3075 44.1396 29.2045 44.217Z" fill="#16142B"/>
<path d="M36.0579 51H26.5449V44.7728C27.4204 44.9239 28.3075 45.039 29.2045 45.1164V47.5833C29.8481 47.2605 30.575 47.0788 31.343 47.0788C32.6625 47.0788 33.8567 47.613 34.7232 48.4782C35.3982 49.1509 35.8744 50.0233 36.0579 51Z" fill="#29234E"/>
<path d="M11.4082 50.9999H11.4915C11.675 50.0232 12.1512 49.1508 12.8262 48.4781C13.6927 47.6129 14.8868 47.0787 16.2063 47.0787C16.9744 47.0787 17.7013 47.2604 18.3449 47.5832V46.6839C17.7013 46.361 16.9744 46.1793 16.2063 46.1793C14.8868 46.1793 13.6927 46.7135 12.8262 47.5787C11.9498 48.452 11.4082 49.6625 11.4082 50.9999Z" fill="#16142B"/>
<path d="M18.3457 44.217V45.1163C19.2427 45.039 20.1298 44.9239 21.0053 44.7728V43.8734C20.1298 44.0245 19.2427 44.1396 18.3457 44.217Z" fill="#16142B"/>
<path d="M11.4922 51H21.0052V44.7728C20.1297 44.9239 19.2426 45.039 18.3456 45.1164V47.5833C17.702 47.2605 16.9751 47.0788 16.2071 47.0788C14.8876 47.0788 13.6934 47.613 12.8269 48.4782C12.1519 49.1509 11.6757 50.0233 11.4922 51Z" fill="#29234E"/>
</g>
<defs>
<clipPath id="clip0_1242_1415">
<rect width="48.0009" height="51" fill="white"/>
</clipPath>
</defs>
</svg>
