<svg width="47" height="51" viewBox="0 0 47 51" fill="none" xmlns="http://www.w3.org/2000/svg">
<g clip-path="url(#clip0_1242_1851)">
<g clip-path="url(#clip1_1242_1851)">
<path d="M45.4913 20.2276C45.4913 20.399 45.4883 20.5693 45.4843 20.7386C45.2681 29.0244 39.8032 36.136 31.9794 39.4606C31.1931 39.7952 30.3817 40.0913 29.5502 40.3468C27.1782 41.0748 24.6363 41.4692 21.9908 41.4692C21.0567 41.4692 20.1347 41.4185 19.2297 41.3222C18.368 41.2289 17.5214 41.0951 16.6908 40.9207C13.4592 40.2403 10.4859 38.9526 7.91284 37.2087L2.77675 38.7965L4.64296 33.8648L4.89131 33.2068C2.8411 30.1448 1.6154 26.5839 1.51485 22.7675C1.50982 22.5972 1.50781 22.4268 1.50781 22.2555C1.50781 11.2393 10.7815 2.18499 22.6565 1.11936C23.4297 1.0494 24.214 1.01392 25.0073 1.01392C29.5853 1.01392 33.8587 2.19716 37.4715 4.24425C39.2763 5.67388 40.8369 7.34887 42.0897 9.21245C44.2485 12.4245 45.4913 16.1953 45.4913 20.2276Z" fill="#7A92DA"/>
<path d="M46.9999 21.2416C46.9999 21.4129 46.9968 21.5832 46.9928 21.7526C46.7766 30.0383 41.3118 37.1499 33.488 40.4745C32.7017 40.8091 31.8902 41.1052 31.0587 41.3607C28.6867 42.0887 26.1448 42.4831 23.4994 42.4831C22.5653 42.4831 21.6432 42.4324 20.7383 42.3361C19.8765 42.2428 19.0299 42.109 18.1994 41.9346C14.9677 41.2542 11.9944 39.9666 9.42138 38.2226L2.14258 40.4725L2.77705 38.7965L7.91313 37.2087C10.4862 38.9527 13.4595 40.2403 16.6911 40.9207C17.5217 41.0951 18.3683 41.2289 19.23 41.3222C20.135 41.4185 21.057 41.4692 21.9911 41.4692C24.6366 41.4692 27.1785 41.0748 29.5504 40.3468C30.382 40.0913 31.1934 39.7952 31.9797 39.4606C39.8035 36.136 45.2684 29.0244 45.4846 20.7387C45.4886 20.5693 45.4916 20.399 45.4916 20.2276C45.4916 16.1953 44.2488 12.4245 42.09 9.21347C40.8372 7.34888 39.2766 5.67388 37.4718 4.24426C37.7362 4.39331 37.9966 4.54742 38.254 4.70661C38.254 4.70661 38.2561 4.70762 38.2571 4.70864C40.3696 6.2508 42.1815 8.11844 43.5983 10.2264C45.7571 13.4385 46.9999 17.2092 46.9999 21.2416Z" fill="#A3AFED"/>
<path d="M38.2542 4.7066C37.9968 4.54742 37.7363 4.3933 37.4719 4.24425C33.8591 2.19716 29.5858 1.01392 25.0077 1.01392C24.2144 1.01392 23.4301 1.0494 22.6569 1.11936C10.782 2.18499 1.50825 11.2393 1.50825 22.2555C1.50825 22.4268 1.51026 22.5972 1.51529 22.7675C1.61584 26.5839 2.84154 30.1448 4.89175 33.2068L4.64339 33.8648L2.77719 38.7965L2.14272 40.4725L0.445436 40.9977L0 41.1346L0.506771 39.7962L0.634469 39.4586L3.13514 32.8509L3.3835 32.1929C1.33329 29.1308 0.107588 25.57 0.00703849 21.7536C0.002011 21.5832 0 21.4129 0 21.2416C0 10.2253 9.27371 1.17107 21.1486 0.105447C21.9219 0.0354871 22.7062 0 23.4995 0C23.6513 0 23.8032 0 23.954 0.00405567H23.962C24.1139 0.00709742 24.2657 0.0101392 24.4165 0.0162227C24.5452 0.0202783 24.6729 0.0253479 24.8006 0.0324453H24.8036C24.8479 0.0344732 24.8911 0.036501 24.9353 0.0395427C25.0369 0.0446123 25.1395 0.0506958 25.241 0.0577932C25.2662 0.0588072 25.2913 0.060835 25.3164 0.0628628C25.3436 0.0628628 25.3717 0.0659046 25.3999 0.0689463C25.5256 0.0770577 25.6503 0.0871968 25.7749 0.0983499C25.9117 0.110517 26.0484 0.122684 26.1852 0.136879C26.2093 0.13992 26.2334 0.141948 26.2586 0.14499C26.3953 0.159185 26.5321 0.174394 26.6688 0.19163C26.8166 0.209881 26.9644 0.229145 27.1112 0.249423C27.2389 0.26666 27.3666 0.285924 27.4933 0.306203C27.5275 0.310258 27.5617 0.316342 27.5949 0.321412C27.7206 0.34169 27.8463 0.361968 27.9709 0.384274C27.984 0.386302 27.9971 0.38833 28.0102 0.391372C28.1489 0.414692 28.2867 0.44004 28.4234 0.467416C28.5602 0.492763 28.6949 0.520139 28.8306 0.548529C28.9935 0.583002 29.1564 0.618489 29.3183 0.656004C29.449 0.685408 29.5787 0.716839 29.7074 0.749284H29.7105C29.8512 0.783757 29.992 0.820258 30.1318 0.857773C30.2615 0.891233 30.3902 0.92672 30.5189 0.963221C30.537 0.96829 30.5551 0.974374 30.5742 0.979443C30.6798 1.00885 30.7853 1.04028 30.8899 1.07171C30.9372 1.0859 30.9844 1.1001 31.0317 1.11429C31.1423 1.14775 31.2519 1.18223 31.3605 1.2167C31.4711 1.2532 31.5817 1.2897 31.6923 1.3262C31.7687 1.35155 31.8451 1.37791 31.9215 1.40427C32.0412 1.44585 32.1599 1.48843 32.2775 1.53101C32.3791 1.56752 32.4806 1.60503 32.5812 1.64356C32.5912 1.64761 32.6003 1.65167 32.6103 1.65471C32.731 1.70135 32.8526 1.74799 32.9723 1.79565C32.9823 1.7997 32.9914 1.80376 32.9994 1.8068C33.1231 1.85648 33.2468 1.90718 33.3695 1.95889C33.5163 2.01972 33.6621 2.08258 33.8059 2.14545C33.9104 2.19209 34.015 2.23974 34.1196 2.2874C34.1548 2.30362 34.19 2.31984 34.2251 2.33606C34.3106 2.37561 34.3961 2.41616 34.4815 2.45672C34.5982 2.51249 34.7128 2.56825 34.8274 2.62604C34.8868 2.65545 34.9461 2.68485 35.0044 2.71527C35.111 2.76901 35.2156 2.82274 35.3201 2.87851C35.4136 2.92718 35.5061 2.97686 35.5987 3.02857C35.6399 3.04986 35.6811 3.07217 35.7223 3.09549C35.8148 3.14618 35.9073 3.19789 35.9988 3.2496C36.026 3.26481 36.0531 3.28103 36.0803 3.29624C36.1688 3.34694 36.2573 3.39865 36.3447 3.45036C36.4795 3.53046 36.6132 3.61056 36.7459 3.69268C36.7459 3.69268 36.7479 3.6937 36.7489 3.69471C36.75 3.69471 36.75 3.69471 36.751 3.69674C37.2668 4.01511 37.7685 4.35173 38.2542 4.7066Z" fill="#626DB9"/>
<path d="M28.4519 15.4652C28.4519 16.7387 27.4283 17.7699 26.1664 17.7699C26.0266 17.7699 25.8898 17.7577 25.7571 17.7324C24.6903 17.5387 23.8809 16.5978 23.8809 15.4652C23.8809 14.1928 24.9045 13.1616 26.1664 13.1616C26.9708 13.1616 27.6776 13.5804 28.0838 14.2131C28.3171 14.574 28.4519 15.0039 28.4519 15.4652Z" fill="#16142B"/>
<path d="M38.3532 15.4652C38.3532 16.7387 37.3306 17.7699 36.0687 17.7699C35.9289 17.7699 35.7922 17.7577 35.6595 17.7324C34.5916 17.5387 33.7832 16.5978 33.7832 15.4652C33.7832 14.1928 34.8058 13.1616 36.0687 13.1616C36.8731 13.1616 37.579 13.5804 37.9852 14.2131C38.2185 14.574 38.3532 15.0039 38.3532 15.4652Z" fill="#16142B"/>
<path d="M25.7755 25.7737C26.5366 26.9843 27.7845 27.9394 29.1137 28.418C31.2414 29.1845 33.5792 28.6127 35.2593 27.1435C35.7118 26.7481 36.1381 26.2857 36.4599 25.7737C36.7817 25.2617 35.9893 24.8176 35.6786 25.3134C34.7315 26.8211 32.9065 27.8492 31.1177 27.8492C29.3289 27.8492 27.5039 26.8201 26.5568 25.3134C26.2461 24.8186 25.4628 25.2759 25.7755 25.7737Z" fill="black"/>
<path d="M29.2213 51H29.1278C28.9217 49.8989 28.3867 48.9154 27.6286 48.157C26.6553 47.1816 25.3139 46.5793 23.8318 46.5793C22.9691 46.5793 22.1526 46.7842 21.4297 47.1482V46.1342C22.1526 45.7702 22.9691 45.5654 23.8318 45.5654C25.3139 45.5654 26.6553 46.1677 27.6286 47.1431C28.613 48.1276 29.2213 49.4923 29.2213 51Z" fill="#16142B"/>
<path d="M21.4287 43.353V44.3669C20.4212 44.2797 19.4248 44.15 18.4414 43.9796V42.9657C19.4248 43.136 20.4212 43.2658 21.4287 43.353Z" fill="#16142B"/>
<path d="M29.1268 51H18.4414V43.9796C19.4248 44.15 20.4212 44.2797 21.4287 44.3669V47.1481C22.1517 46.7841 22.9682 46.5793 23.8309 46.5793C25.313 46.5793 26.6543 47.1816 27.6276 48.1569C28.3858 48.9154 28.9207 49.8989 29.1268 51Z" fill="#29234E"/>
<path d="M30.4359 43.6704L32.273 48.9793H32.2719L30.084 42.6565C31.0563 42.401 32.0105 42.1049 32.9406 41.7683L33.2915 42.7822C32.3614 43.1188 31.4082 43.4149 30.4359 43.6704Z" fill="#16142B"/>
<path d="M42.4498 45.3992L42.3513 45.4336C41.7973 44.4887 40.9838 43.7556 40.0376 43.3003C38.7999 42.7031 37.3369 42.5794 35.9372 43.0722C35.1228 43.3591 34.4189 43.8235 33.8548 44.4075L33.5039 43.3926C34.068 42.8086 34.7708 42.3452 35.5853 42.0583C36.9849 41.5655 38.4479 41.6892 39.6857 42.2864C40.9365 42.8887 41.9571 43.9756 42.4498 45.3992Z" fill="#16142B"/>
<path d="M42.3507 45.4346L32.2726 48.9803L30.4355 43.6714C31.4079 43.4159 32.3611 43.1198 33.2912 42.7832L33.5023 43.3946H33.5033L33.8542 44.4085C34.4183 43.8245 35.1222 43.3601 35.9366 43.0732C37.3363 42.5804 38.7993 42.7041 40.037 43.3013C40.9832 43.7566 41.7967 44.4896 42.3507 45.4346Z" fill="#29234E"/>
<path d="M33.5051 43.3936L33.5041 43.3946L33.293 42.7822H33.294L33.5051 43.3936Z" fill="#29234E"/>
<path d="M36.751 3.69674C36.751 3.69674 36.751 3.69471 36.7489 3.69471C36.7489 3.6937 36.7469 3.69268 36.7459 3.69268C36.6132 3.61056 36.4795 3.53046 36.3447 3.45036C36.2573 3.39865 36.1688 3.34694 36.0803 3.29624C36.0531 3.28103 36.026 3.26481 35.9988 3.2496C35.9073 3.19789 35.8148 3.14618 35.7223 3.09549C35.6811 3.07217 35.6399 3.04986 35.5987 3.02857C35.5062 2.97686 35.4136 2.92718 35.3201 2.87851C35.2156 2.82274 35.111 2.76901 35.0044 2.71527C34.9461 2.68485 34.8868 2.65545 34.8274 2.62604C34.7128 2.56825 34.5982 2.51249 34.4815 2.45672C34.3961 2.41616 34.3106 2.37561 34.2251 2.33606C34.19 2.31984 34.1548 2.30362 34.1196 2.2874C34.015 2.23974 33.9104 2.19209 33.8059 2.14545C33.6621 2.08258 33.5163 2.01972 33.3695 1.95889C33.2468 1.90718 33.1231 1.85648 32.9994 1.8068C32.9914 1.80376 32.9824 1.7997 32.9723 1.79565C32.8526 1.74799 32.731 1.70135 32.6103 1.65471C32.6003 1.65167 32.5912 1.64761 32.5812 1.64356C32.4806 1.60503 32.3791 1.56752 32.2775 1.53101C32.1599 1.48843 32.0412 1.44585 31.9216 1.40427C31.8451 1.37791 31.7687 1.35155 31.6923 1.3262C31.5817 1.2897 31.4711 1.2532 31.3605 1.2167C31.2519 1.18223 31.1423 1.14775 31.0317 1.11429C30.9844 1.1001 30.9372 1.0859 30.8899 1.07171C30.7853 1.04028 30.6798 1.00885 30.5742 0.979443C30.5551 0.974374 30.537 0.96829 30.5189 0.963221C30.3902 0.92672 30.2615 0.891233 30.1318 0.857773C29.992 0.820258 29.8512 0.783757 29.7105 0.749284H29.7074C29.5787 0.716839 29.449 0.685408 29.3183 0.656004C29.1564 0.618489 28.9935 0.583002 28.8307 0.548529C28.6949 0.520139 28.5602 0.492763 28.4234 0.467416C28.2867 0.44004 28.1489 0.414692 28.0102 0.391372C27.9971 0.38833 27.984 0.386302 27.9709 0.384274C27.8463 0.361968 27.7206 0.34169 27.5949 0.321412C27.5617 0.316342 27.5275 0.310258 27.4933 0.306203C27.3666 0.285924 27.2389 0.26666 27.1112 0.249423C26.9644 0.229145 26.8166 0.209881 26.6688 0.19163C26.5321 0.174394 26.3953 0.159185 26.2586 0.14499C26.2334 0.141948 26.2093 0.13992 26.1852 0.136879C26.0484 0.122684 25.9117 0.110517 25.7749 0.0983499C25.6503 0.0871968 25.5256 0.0770577 25.3999 0.0689463C25.3717 0.0659046 25.3436 0.0638767 25.3164 0.0628628C25.2913 0.060835 25.2662 0.0588072 25.241 0.0577932C25.1395 0.0506958 25.0369 0.0446123 24.9354 0.0395427C24.8911 0.036501 24.8479 0.0344732 24.8036 0.0324453H24.8006C24.6729 0.0253479 24.5452 0.0202783 24.4165 0.0162227C24.2657 0.0101392 24.1139 0.00709742 23.962 0.00405567H23.954C23.8032 0.00101392 23.6513 0 23.4995 0C22.7062 0 21.9219 0.0354871 21.1486 0.105447C9.27371 1.17107 0 10.2253 0 21.2416C0 21.4129 0.002011 21.5832 0.00703849 21.7536C0.107588 25.57 1.33329 29.1308 3.3835 32.1929L3.13514 32.8509L0.634469 39.4586L2.77719 38.7965L4.64339 33.8648L4.89175 33.2068C2.84154 30.1448 1.61584 26.5839 1.51529 22.7675C1.51026 22.5972 1.50825 22.4268 1.50825 22.2555C1.50825 11.2393 10.782 2.18499 22.6569 1.11936C23.4301 1.0494 24.2144 1.01392 25.0077 1.01392C29.5858 1.01392 33.8591 2.19716 37.4719 4.24425C37.2356 4.05769 36.9953 3.87417 36.751 3.69674Z" fill="#5D6BA3"/>
</g>
</g>
<defs>
<clipPath id="clip0_1242_1851">
<rect width="47" height="51" fill="white"/>
</clipPath>
<clipPath id="clip1_1242_1851">
<rect width="47" height="51" fill="white"/>
</clipPath>
</defs>
</svg>
