<svg width="43" height="51" viewBox="0 0 43 51" fill="none" xmlns="http://www.w3.org/2000/svg">
<g clip-path="url(#clip0_1242_1613)">
<g clip-path="url(#clip1_1242_1613)">
<path d="M13.1714 42.0762L8.71094 46.5403L14.0243 41.2243C13.1496 40.496 12.3138 39.7348 11.5226 38.9441L10.6707 39.7971C11.462 40.5877 12.2967 41.3478 13.1714 42.0762Z" fill="#16142B"/>
<path d="M0 37.9982L0.0846119 38.0809C1.11139 37.3967 2.30282 37.0512 3.49424 37.0501C5.05499 37.0478 6.61688 37.6312 7.81402 38.807C8.5115 39.4912 9.00774 40.3 9.30388 41.1631L10.1569 40.309C9.86072 39.447 9.36448 38.6382 8.667 37.9552C7.46872 36.7805 5.90683 36.196 4.34722 36.1982C2.77047 36.1994 1.196 36.8009 0 37.9982Z" fill="#16142B"/>
<path d="M0.0839844 38.0809L8.70983 46.5403L13.1702 42.0761C12.2955 41.3477 11.4609 40.5865 10.6696 39.797L10.1562 40.3113L9.30325 41.1631C9.00711 40.3011 8.50973 39.4911 7.8134 38.807C6.61511 37.6323 5.05322 37.0478 3.49362 37.0501C2.30104 37.0501 1.11076 37.3955 0.0839844 38.0809Z" fill="#29234E"/>
<path d="M20.5152 44.6588L20.4844 50.9411L20.521 43.4592C21.6598 43.5555 22.7941 43.6031 23.9169 43.5986L23.9112 44.7981C22.7872 44.8027 21.6541 44.7551 20.5164 44.6588H20.5152Z" fill="#16142B"/>
<path d="M32.74 51H32.6211C32.3833 49.7959 31.7876 48.7175 30.9449 47.8826C29.8427 46.7884 28.3219 46.1076 26.6354 46.0997C25.6544 46.0951 24.7248 46.3194 23.9004 46.7227L23.9061 45.522C24.7305 45.1187 25.6589 44.8956 26.64 44.9001C28.3254 44.908 29.8472 45.5888 30.9495 46.683C32.0632 47.7875 32.7481 49.3167 32.74 51.0011V51Z" fill="#16142B"/>
<path d="M32.6216 50.9989L20.4844 50.94L20.5152 44.6577C21.6541 44.754 22.7872 44.8016 23.91 44.797L23.9066 45.5209H23.9077L23.902 46.7205C24.7264 46.3172 25.656 46.094 26.637 46.0974C28.3224 46.1054 29.8443 46.7862 30.9465 47.8804C31.7892 48.7164 32.3849 49.7936 32.6228 50.9977L32.6216 50.9989Z" fill="#29234E"/>
<path d="M40.2784 7.41844C38.4478 5.28433 36.0432 3.5852 33.1882 2.58272C24.5555 -0.447403 15.0778 4.02811 12.018 12.5804C9.57114 19.4211 6.08376 24.0881 4.33664 25.5584C3.26755 26.4544 2.9131 27.8783 3.33845 29.1186C3.10748 28.9578 2.89595 28.7686 2.713 28.5534C1.52958 27.1669 1.70338 25.0951 3.10176 23.9238C4.84888 22.4535 8.33627 17.7865 10.7831 10.9458C13.8429 2.39241 23.3206 -2.0831 31.9533 0.948151C35.5058 2.19531 38.3609 4.51859 40.2784 7.41844Z" fill="#D89336"/>
<path d="M39.6264 38.4967C39.0159 40.2095 37.1201 41.1066 35.3958 40.5028L27.4206 37.7027C25.7078 40.5232 22.4605 42.057 19.1709 41.5982C17.2592 41.3343 15.5921 40.4439 14.3492 39.1651C13.1212 37.9009 12.3082 36.2596 12.0898 34.4687C12.4877 35.4825 13.088 36.4068 13.845 37.1861C15.0867 38.465 16.7549 39.3554 18.6667 39.6193C21.9563 40.0769 25.2047 38.5432 26.9164 35.7238L34.8916 38.5239C36.6159 39.1288 38.5128 38.2305 39.1222 36.5178C39.3154 35.9707 39.3612 35.3817 39.2526 34.8142C38.8295 32.5815 39.0925 26.7807 41.5394 19.9422C42.5513 17.1149 42.7342 14.1958 42.214 11.4454C43.2773 14.7451 43.3025 18.4039 42.0436 21.9211C39.5967 28.7596 39.3337 34.5604 39.7568 36.7931C39.8654 37.3617 39.8197 37.9496 39.6264 38.4967Z" fill="#FCCC8B"/>
<path d="M39.1222 36.5166C38.5116 38.2293 36.6158 39.1264 34.8916 38.5227L26.9163 35.7225C25.2035 38.5431 21.9562 40.0768 18.6667 39.6181C16.7549 39.3541 15.0878 38.4638 13.8449 37.1849C13.088 36.4056 12.4877 35.4812 12.0898 34.4674C12.0498 34.148 12.0281 33.8252 12.0281 33.4989C12.0258 33.1115 12.0532 32.7196 12.1081 32.3254L4.1363 29.5264C3.85159 29.4267 3.58289 29.2885 3.3382 29.1174C3.14611 28.5533 3.11409 27.9507 3.23644 27.3775C3.38394 26.6911 3.7544 26.0465 4.33639 25.5572C6.08351 24.0869 9.5709 19.4199 12.0178 12.5792C15.0775 4.02805 24.5552 -0.447458 33.1879 2.58379C36.043 3.58628 38.4487 5.28541 40.2782 7.41952C41.1037 8.66668 41.7543 10.0226 42.2139 11.4453C42.733 14.1945 42.5501 17.1148 41.5393 19.9421C39.0924 26.7806 38.8295 32.5814 39.2525 34.814C39.3611 35.3827 39.3154 35.9706 39.1222 36.5177V36.5166Z" fill="#FBB03B"/>
<path d="M24.3644 15.2638C23.9516 16.4181 22.6721 17.0219 21.507 16.613C21.3778 16.5676 21.2555 16.5121 21.1411 16.4464C20.2195 15.9254 19.777 14.8096 20.1452 13.7822C20.558 12.6279 21.8375 12.0253 23.0026 12.4342C23.7447 12.6948 24.2615 13.3042 24.4318 14.0087C24.5302 14.412 24.5153 14.8447 24.3655 15.2638H24.3644Z" fill="#16142B"/>
<path d="M18.4895 23.798C18.8977 25.5662 20.2218 27.2189 21.8683 27.9937C24.0087 29.0008 26.626 28.6757 28.4897 27.2314C29.0111 26.8281 28.2782 26.1111 27.7625 26.511C27.9295 26.3818 27.6973 26.5551 27.6493 26.5857C27.5155 26.6718 27.3818 26.7556 27.2423 26.8327C26.8581 27.0468 26.4556 27.2178 26.0337 27.3424C24.7256 27.7309 23.3124 27.6256 22.1072 26.9709C20.8198 26.272 19.8101 24.9512 19.482 23.5262C19.3345 22.8873 18.342 23.1569 18.4895 23.7969V23.798Z" fill="black"/>
<path d="M29.4075 18.1717C29.7505 17.3131 30.7522 16.8486 31.6314 17.1794C32.5107 17.5102 32.9132 18.5013 32.6331 19.3815C32.4341 20.009 33.4266 20.2775 33.6255 19.6522C34.0737 18.2396 33.3385 16.6832 31.9047 16.1962C30.4709 15.7091 28.9616 16.5303 28.415 17.901C28.1715 18.5115 29.1663 18.7754 29.4075 18.1717Z" fill="#16142B"/>
</g>
</g>
<defs>
<clipPath id="clip0_1242_1613">
<rect width="43" height="51" fill="white"/>
</clipPath>
<clipPath id="clip1_1242_1613">
<rect width="43" height="51" fill="white"/>
</clipPath>
</defs>
</svg>
