<?xml version="1.0" encoding="UTF-8"?>
<svg id="Calque_2" data-name="Calque 2" xmlns="http://www.w3.org/2000/svg" viewBox="0 0 639.23 520.82">
  <defs>
    <style>
      .cls-1 {
        fill: #beeff4;
      }

      .cls-2 {
        fill: #a3afed;
      }

      .cls-3 {
        fill: #c4cdf7;
      }

      .cls-4 {
        fill: #b4dbe2;
      }

      .cls-5 {
        fill: #e0b1c5;
      }

      .cls-6 {
        fill: #edcada;
      }

      .cls-7 {
        fill: #fff;
      }

      .cls-8 {
        fill: #9fbbc9;
      }

      .cls-9 {
        fill: #b58ea8;
      }

      .cls-10 {
        fill: #626db9;
      }
    </style>
  </defs>
  <g id="Logo">
    <g>
      <g>
        <path class="cls-5" d="M547.96,234.33c-24.74,52.78-68.91,74.98-80.9,80.54-73.17,3.84-133.6-2.66-176.92-9.98-79.8-13.46-157.44-27.65-187.69-85.74-5.72-10.98-8.48-21.11-9.94-28.23,10.76-57.56,35.78-92.26,51.52-110.09C233.73-20.81,419.4-25.18,513.02,59.74c23.54,21.35,37.27,44.73,45,60.51,3.42,12.72,14.79,61.08-10.05,114.08h-.01Z"/>
        <path class="cls-9" d="M467.06,314.87c-4.7.64-9.41,1.29-14.11,1.94-1.93.16-3.87.29-5.83.37-.04,0-.08.01-.11.01-50.18,5.48-105.87,8.94-166.23,8.66-15.47-.07-30.61-.38-45.41-.91-25.81-.92-50.57-2.48-74.21-4.52-.61-.05-1.2.16-1.64.58-8.96,8.67-27.63,24.28-56.06,32.44-20.6,5.9-38.74,5.72-51.24,4.37-2.17-.23-2.58-3.22-.55-4.04,8.37-3.38,19.52-9.38,29.73-20.04.5-.52.99-1.05,1.47-1.58.33-.35.65-.71.96-1.07.26-.29.51-.58.77-.88.34-.4.68-.81,1.01-1.21.4-.48.78-.96,1.16-1.44.03-.04.07-.09.1-.13.41-.52.82-1.05,1.2-1.57.01,0,.02-.03.04-.05.36-.48.71-.96,1.04-1.44.08-.1.15-.2.22-.3.68-.95,1.31-1.9,1.91-2.83,1.68-2.58,3.09-5.07,4.29-7.4.17-.33.33-.66.49-.98.48-.96.92-1.88,1.32-2.77.36-.78.69-1.54.99-2.27.23-.56.2-1.19-.07-1.73-5.86-11.72-10.27-22.66-13.54-32.8-12.49-38.77-6.34-65.46-4.15-80.61,7.07-48.78,39.34-96.08,84.97-132.93,0,0-53,67.13-62.87,105.4-4.16,16.13-8.08,38.88-.44,53.68.06.11.11.22.17.33,30.25,58.09,107.89,72.28,187.69,85.74,43.32,7.32,103.75,13.82,176.92,9.98h0Z"/>
        <path class="cls-2" d="M593,352.91c-8.26,4.41-10.7,15.13-5.05,22.61,1.07,1.42,2.26,2.84,3.6,4.24,8.75,9.18,18.68,12.45,23.03,13.61-6.76,2.55-18.86,5.28-31.35-.78-14.52-7.04-19.16-20.9-19.95-23.38-6.86,2.73-15.92,5.6-26.81,7.22-10.01,1.48-18.81,1.5-25.79,1.03-.86.01-2.36.01-4.28-.14,20.85-10.82,36.94-21.8,48.11-30.16,28.3-21.18,47.77-36.15,56.17-61.99,5.05-15.53,4.37-29.65,3.11-38.8,4.26,3.02,8.37,6.78,12.07,11.45,2.42,3.06,4.52,6.32,6.29,9.73,1.6,6.86,5.4,27.18-4.6,49.26-8.72,19.25-23.56,30.23-34.55,36.1Z"/>
        <path class="cls-8" d="M233.35,352.88c-.94,3.34-2.06,6.23-3.19,8.7-.86,1.87-41.05,16.36-43.63,17.53-.86.39-1.74.79-2.66,1.21-.23.1-.46.21-.69.32-.58.26-1.17.54-1.77.82s-1.21.57-1.83.87c-.5.24-1,.48-1.5.73-1.78.88-3.62,1.83-5.48,2.85-.52.28-1.03.57-1.55.87-1.11.63-2.22,1.3-3.32,1.99-.56.34-1.11.7-1.66,1.06-.54.35-1.08.71-1.61,1.08-1.12.76-2.22,1.56-3.31,2.39h0c-4.55-2.21-9.08-4.42-13.63-6.63-12.41,1.6-31.31,2.47-53.3-2.75-15.12-3.59-27.35-9.02-36.32-13.89-1.44-.69-8.56-4.28-9.55-10.51-1.22-7.61,6.92-17.69,21.07-19.71-6.32-1.76-17.27-5.71-28.12-14.82-9.83-8.26-15.4-17.27-18.33-22.92,14.76-14.81,35.99-25.94,61.8-28.79,3.27,10.14,7.68,21.08,13.54,32.8.27.54.31,1.18.07,1.74-.3.72-.63,1.48-.99,2.26-.4.89-.84,1.81-1.32,2.77-.16.32-.32.65-.49.98-1.2,2.33-2.61,4.82-4.29,7.4-.6.93-1.24,1.88-1.91,2.83-.07.1-.14.2-.22.3-.33.48-.68.96-1.04,1.44-.02.02-.03.04-.04.05-.39.52-.79,1.05-1.2,1.57-.03.04-.07.09-.1.13-.38.48-.76.96-1.16,1.44-.33.41-.67.81-1.01,1.21-.26.3-.51.59-.77.88-.31.36-.63.72-.96,1.07-.47.53-.97,1.05-1.47,1.58-10.21,10.66-21.36,16.66-29.73,20.04-2.03.82-1.62,3.81.55,4.04,12.5,1.35,30.64,1.53,51.24-4.37,28.43-8.16,47.1-23.77,56.06-32.44.44-.42,1.03-.63,1.64-.58,23.64,2.04,48.4,3.6,74.21,4.52,1.23,11.54,0,20.78-2.02,27.94h0Z"/>
        <path class="cls-4" d="M156.15,390.87c-7.52,4.16-20.93,10.33-38.81,12.1-12.61,1.25-23.51-.08-31.82-1.94-6.53-1.46-12.85,3.27-13.1,9.96-.17,4.47.43,9.73,2.74,15.23,6.32,15.09,20.46,19.93,22.55,20.61-13.75,2.85-27.52-.52-36.68-9.47-8.06-7.87-10.08-17.63-10.68-21.87-2.39-.98-44.56-18.89-49.81-55.21-2.84-19.63,5.57-41.31,22.42-58.21,2.93,5.65,8.5,14.66,18.33,22.92,10.85,9.11,21.8,13.06,28.12,14.82-14.15,2.02-22.29,12.1-21.07,19.71.99,6.23,8.11,9.82,9.55,10.51,8.97,4.87,21.2,10.3,36.32,13.89,21.99,5.22,40.89,4.35,53.3,2.75,2.88,1.4,5.76,2.8,8.64,4.2h0Z"/>
        <path class="cls-10" d="M610.68,285.17c-8.4,25.84-27.87,40.81-56.17,61.99-11.17,8.36-27.26,19.34-48.11,30.16h-.01c-.39-.03-.8-.07-1.23-.11-.43-.05-.87-.1-1.33-.16-.22-.03-.46-.07-.69-.1-.47-.07-.96-.15-1.45-.24-.08-.02-.15-.03-.23-.04-.62-.12-1.25-.25-1.9-.4-.59-.14-1.19-.29-1.8-.45-.54-.15-1.08-.31-1.63-.48-.58-.19-1.15-.38-1.72-.59-.51-.19-1.03-.39-1.55-.6-.35-.15-.7-.3-1.04-.45-.29-.13-.58-.26-.87-.4-.58-.28-1.16-.57-1.74-.89-.23-.12-.46-.25-.69-.38-.36-.2-.71-.41-1.06-.63-.29-.17-.57-.35-.85-.53-.58-.38-1.15-.77-1.72-1.19-.28-.21-.56-.42-.84-.64-.25-.19-.49-.39-.74-.6-.06-.04-.12-.09-.18-.15-.22-.19-.45-.38-.67-.58-.57-.5-1.14-1.03-1.69-1.59-.67-.68-1.32-1.39-1.93-2.12-.41-.49-.8-.99-1.19-1.5-.19-.26-.38-.51-.56-.77-.37-.52-.72-1.05-1.07-1.59-.34-.54-.67-1.09-.98-1.64-.16-.28-.31-.56-.46-.84-.15-.29-.3-.57-.44-.86-.15-.29-.29-.57-.42-.87-.14-.29-.27-.58-.4-.87s-.26-.59-.38-.89c-.12-.3-.24-.6-.36-.91-.23-.6-.45-1.21-.65-1.83-.2-.62-.39-1.24-.57-1.87-.41-1.48-.74-2.99-.99-4.53-.07-.42-.13-.86-.19-1.29h0c-.07-.51-.12-1-.17-1.51-.05-.49-.1-.99-.13-1.5h0c-.07-1.01-.1-2.03-.1-3.05h0c0-.62.01-1.23.04-1.84.02-.56.05-1.13.09-1.7.01-.13.02-.27.04-.4.04-.51.09-1.01.14-1.52.01-.02.01-.05.01-.07.07-.55.14-1.11.22-1.66.02-.09.03-.18.04-.27.1-.6.2-1.19.32-1.79.12-.61.24-1.21.39-1.82.01-.03.01-.06.02-.09.13-.56.27-1.12.43-1.68.01-.08.04-.17.07-.26.15-.58.32-1.15.5-1.73.28-.9.58-1.8.92-2.7.93-2.5,2.07-4.98,3.42-7.4h0c41.61-10.96,75-40.72,91.07-78.12,1.61-.2,25.8-2.75,46.28,11.74,1.26,9.15,1.94,23.27-3.11,38.8h0Z"/>
      </g>
      <g>
        <path class="cls-7" d="M294.8,56.77c-18.36,35.54-32.65,72.95-42.81,111.64-3.09,11.77-21.31,6.75-18.22-5.02,4.21-16.04,9.13-31.87,14.75-47.45-15.2,4.31-30.75,7.16-46.52,8.75h0c-4.08,13.16-7.86,26.43-11.35,39.76-3.08,11.77-21.29,6.75-18.22-5.02,8.65-33.07,19.11-65.64,31.32-97.56,1.83-4.78,6.3-8.06,11.62-6.6,4.58,1.26,8.42,6.86,6.6,11.62-4.83,12.63-9.39,25.36-13.67,38.18,16.44-2.12,32.62-6.05,48.3-11.44.18-.06.36-.12.54-.16,6.42-15.72,13.55-31.15,21.35-46.23,2.35-4.55,8.69-5.86,12.93-3.39,4.56,2.67,5.73,8.39,3.39,12.92h0Z"/>
        <path class="cls-7" d="M312.28,114.94c-1.05,1.79-3.48,4.05-5.65,4.35-3.39.46-6.72.83-10.11.89-.9,2.37-1.84,4.74-2.81,7.11,1.09-.03,2.2-.07,3.29-.12,5.29-.24,9.23,4.52,9.45,9.45.24,5.27-4.52,9.23-9.45,9.45-3.59.17-7.19.23-10.78.2-1.09,3.16-2.07,6.35-2.84,9.59,2.4-.79,4.77-1.67,7.09-2.68,4.7-2.05,10.11-1.43,12.93,3.39,2.36,4.03,1.29,10.88-3.39,12.92-6.91,3.02-13.89,5.54-21.23,7.26-.61.14-1.23.23-1.85.25-5.68,3.23-14.63.65-14.35-7.77.74-22.23,12.04-41.17,18.45-61.94,1.88-6.12,7.85-7.63,12.53-5.98.29-.02.59-.04.88-.03,1.5.04,2.99.03,4.48-.05.75-.04,1.5-.09,2.24-.16.21-.02,1.11-.12,1.42-.14-.06.02-.15.02-.27.05,2.38-.26,4.38-.12,6.59,1.04,2.19,1.16,3.61,3.36,4.35,5.64.73,2.28.23,5.26-.95,7.28h0Z"/>
        <path class="cls-7" d="M345.3,133.42c3.61,3.61,3.61,9.76,0,13.36-5.42,5.41-11.13,10.5-17.12,15.28-4,3.19-9.42,3.94-13.36,0-2.63-2.63-3.6-7.46-1.91-10.94,0,0,0,0,0,0,1.68-24.63,7.82-48.42,18.06-70.91,2.13-4.67,8.86-5.76,12.93-3.39,4.72,2.76,5.49,8.29,3.39,12.93-6.09,13.38-10.46,27.55-13.06,42.03,3.56-1.83,8.13-1.28,11.08,1.66h0Z"/>
        <path class="cls-7" d="M411.92,73.28c-3.63-5.5-10.2-7.84-16.54-8.25-11.94-.77-21.44,6.16-32.25,9.81-4.83,1.63-8.01,6.5-6.6,11.62,0,0,0,.02,0,.03-.13.6-.2,1.24-.21,1.91-.6,26.6-1.2,53.2-1.79,79.8-.27,12.16,18.63,12.16,18.89,0l.71-31.46c8.8-3.34,16.6-9.06,22.75-16.19,7.27-8.4,14.91-19.45,17.35-30.47,1.25-5.68.96-11.85-2.32-16.82h0ZM396.03,85.12c-.17,1.2-.78,2.87-1.31,4.12-4.14,9.79-10.97,19.97-20.11,26.11.19-8.42.38-16.82.57-25.24,5.19-2.46,10.37-5.18,15.92-6.06,1.4-.22,2.95-.3,4.35-.09.2.03.38.07.52.1-.08-.69-.14-1.26.2-.38.13.34.28.52.35.6-.09-.05-.25-.13-.56-.22.04.39.09.83.06,1.05h0Z"/>
        <path class="cls-7" d="M420.97,198.61c12.15,0,12.18-18.89,0-18.89s-12.18,18.89,0,18.89h0Z"/>
        <path class="cls-7" d="M437.38,163.04c5.04-27.35,16.38-53.49,33.73-75.31,3.17-3.99,3.9-9.46,0-13.36-3.29-3.29-10.17-4.01-13.36,0-19.39,24.4-32.93,52.93-38.59,83.64-.92,5.01,1.38,10.19,6.6,11.62,4.59,1.26,10.69-1.55,11.62-6.6h0Z"/>
        <path class="cls-7" d="M417.86,236.42c.12-.28.21-.58.31-.86,2.43-6.98,3.85-14.05,4.2-21.44.26-5.22-3.38-8.02-7.4-8.38-2.59-.84-5.48-.25-7.82,2.61-8.37,10.22-16.82,20.49-26.55,29.31.84-5.06,1.23-10.22,1.14-15.49-.1-5.37-4.15-8.19-8.31-8.44h-.02c-2.22-1.16-4.97-1.19-7.79.65-4.45,2.92-8.66,6.13-12.6,9.61-.89-2.07-2.61-3.43-4.62-4.11h-.02c-1.12-.65-2.45-1.05-3.99-1.14-6.18-.33-12.08,1.28-17.55,4.15-1.72-6.11-9.19-10.33-14-4.11-6.02,7.75-12.27,15.28-18.8,22.59.02-.74.02-1.49-.02-2.22-.31-7.7-2.78-18.99-12.95-17.4-3.43.54-7,2.68-10.34,5.36-.49-1.63-1.47-2.98-2.73-3.99-1.21-4.11-4.95-7.25-10.19-5.37-22.37,8-40.83,22.37-53.99,42.16-6.25,9.4,8.91,18.18,15.12,8.84,7.98-12.01,18.66-21.79,31.17-28.58-2.35,6.55-5.23,12.86-8.75,19.01-.26.44-.47.89-.63,1.33-5.2,9.07,9.36,17.15,15.54,8.14,4.22-6.18,8.93-11.92,14.21-17.24,2.03-2.05,4.13-4.03,6.3-5.92-1.3,6.86-4.94,14.42-6.76,18.88-1.44,3.54-.44,6.41,1.66,8.23,2.38,4.83,9.08,7.77,14.09,2.85,3.36-3.29,6.67-6.65,9.91-10.05,3.33,4.66,11.13,6.27,14.84-.16,4.97-8.63,13.95-21.89,24.54-26.95-.7,3.83-1.75,7.58-3.13,11.24-.95,2.5-2.05,4.99-3.31,7.4-1.28,2.45-1.31,4.83-.6,6.88.02.1.07.19.12.28,2.4,6.13,11.73,9.1,15.59,1.66,1.37-2.63,2.59-5.29,3.66-8,4.24-7.04,9.31-13.39,15.24-18.95-1.09,5.02-2.75,9.92-5.04,14.68-3.15,6.55,2.07,12.58,7.46,13.25.03,0,.09.03.14.03,2.01.68,4.34.52,6.72-.89,8.03-4.76,15.23-10.43,21.91-16.71-.72,2.1-1.23,4.25-1.37,6.42-.19,2.8,1.73,6.35,4.32,7.56,10.33,4.76,22.63-6.16,30.03-12.48,7.47-6.39-1.01-16.57-8.96-14.25h0ZM405.81,248.32c-.05-.1-.12-.19-.18-.3.28.14.56.26.84.39-.23-.03-.44-.05-.67-.09Z"/>
      </g>
    </g>
    <path class="cls-3" d="M629.98,330.7c-4.64,4.79-10.99,10.47-19.25,15.82-7.45,4.82-14.48,8.08-20.29,10.31,2,4.31,4.76,9.29,8.6,14.44,5.4,7.23,11.26,12.55,16.34,16.36.76.57,1.18,1.37,1.28,2.19-.69,1.18-1.39,2.37-2.08,3.55-4.03-1-14.26-4.09-23.03-13.61-4.16-4.52-6.87-9.26-8.64-13.48-2.49-5.96.14-12.81,6.01-15.5,11.02-5.06,28.54-15.99,38.24-37.32,9.2-20.23,6.41-38.88,4.99-45.9h.01c10,19.24,9.5,43.24-2.18,63.15h0Z"/>
    <path class="cls-1" d="M169.47,405.2c-13.45,4.05-23.5,5.14-23.5,5.14-.41.05-.82.09-1.23.13-16.96,1.83-35.51,1.4-54.93-1.59-1.5,2.23-4.62,7.6-4.06,14.5.61,7.55,5.43,14.46,12.72,18.7,1.39.82,1.62,2.48.9,3.62-.55.37-1.11.75-1.66,1.13-2.09-.68-16.23-5.52-22.55-20.61-2.31-5.5-2.91-10.76-2.74-15.23.25-6.69,6.57-11.42,13.1-9.96,8.31,1.86,19.21,3.19,31.82,1.94,17.88-1.77,31.29-7.94,38.81-12.1h0l4.98,2.43,8.33,11.9Z"/>
    <path class="cls-6" d="M567.51,234.63c-16.07,37.4-49.46,67.16-91.07,78.11-3.08.82-6.21,1.53-9.38,2.13,11.99-5.56,56.16-27.76,80.9-80.54,24.84-53,13.47-101.36,10.05-114.08,11.08,17.65,18.92,37.95,19.87,60.6,1.11,26.3-7.41,46.9-10.37,53.78h0Z"/>
  </g>
  <path class="cls-8" d="M230.16,361.58c-13.33,25.11-40.76,37.61-60.69,43.62l-8.33-11.9-4.98-2.43,74-29.29Z"/>
</svg>